<mxfile host="app.diagrams.net" agent="Mozilla/5.0 (Windows NT 10.0; Win64; x64) AppleWebKit/537.36 (KHTML, like Gecko) Chrome/131.0.0.0 Safari/537.36" border="50" scale="3" compressed="false" locked="false" version="24.8.6">
  <diagram name="Blank" id="YmL12bMKpDGza6XwsDPr">
    <mxGraphModel dx="1313" dy="1218" grid="0" gridSize="10" guides="1" tooltips="1" connect="1" arrows="1" fold="1" page="0" pageScale="1" pageWidth="827" pageHeight="1169" background="none" math="1" shadow="0">
      <root>
        <mxCell id="X5NqExCQtvZxIxQ7pmgY-0" />
        <mxCell id="1" parent="X5NqExCQtvZxIxQ7pmgY-0" />
        <mxCell id="Gr0Zq-AI6Quabplr0KPa-179" value="Mindmap" style="swimlane;html=1;startSize=20;horizontal=1;containerType=tree;labelBackgroundColor=none;strokeColor=#D4E1F5;strokeWidth=1;fillColor=none;fontFamily=Comic Sans MS;fontSize=9;swimlaneLine=0;dashed=1;collapsible=0;" parent="1" vertex="1">
          <mxGeometry x="219" y="-200" width="1924" height="1065" as="geometry" />
        </mxCell>
        <mxCell id="AG7CsUv1BUj_aHWcoPG0-14" style="edgeStyle=orthogonalEdgeStyle;rounded=0;orthogonalLoop=1;jettySize=auto;html=1;" edge="1" parent="Gr0Zq-AI6Quabplr0KPa-179" source="Gr0Zq-AI6Quabplr0KPa-180" target="AG7CsUv1BUj_aHWcoPG0-15">
          <mxGeometry relative="1" as="geometry">
            <mxPoint x="1092.857142857143" y="63" as="targetPoint" />
          </mxGeometry>
        </mxCell>
        <mxCell id="Gr0Zq-AI6Quabplr0KPa-180" value="&lt;font face=&quot;Comic Sans MS&quot;&gt;Data.Map&lt;/font&gt;" style="ellipse;whiteSpace=wrap;html=1;align=center;container=1;recursiveResize=0;treeFolding=1;strokeWidth=2;textShadow=1;labelBorderColor=none;labelBackgroundColor=default;" parent="Gr0Zq-AI6Quabplr0KPa-179" vertex="1">
          <mxGeometry x="892" y="36.5" width="108" height="53" as="geometry" />
        </mxCell>
        <mxCell id="AG7CsUv1BUj_aHWcoPG0-3" style="edgeStyle=orthogonalEdgeStyle;rounded=0;orthogonalLoop=1;jettySize=auto;html=1;entryX=0.5;entryY=0;entryDx=0;entryDy=0;" edge="1" parent="Gr0Zq-AI6Quabplr0KPa-179" source="AG7CsUv1BUj_aHWcoPG0-2" target="AG7CsUv1BUj_aHWcoPG0-4">
          <mxGeometry relative="1" as="geometry">
            <mxPoint x="743" y="122.83333333333326" as="targetPoint" />
          </mxGeometry>
        </mxCell>
        <mxCell id="AG7CsUv1BUj_aHWcoPG0-9" style="edgeStyle=orthogonalEdgeStyle;rounded=0;orthogonalLoop=1;jettySize=auto;html=1;exitX=0.5;exitY=1;exitDx=0;exitDy=0;" edge="1" parent="Gr0Zq-AI6Quabplr0KPa-179">
          <mxGeometry relative="1" as="geometry">
            <mxPoint x="655" y="256.5" as="targetPoint" />
            <mxPoint x="791.0000000000001" y="93" as="sourcePoint" />
          </mxGeometry>
        </mxCell>
        <mxCell id="AG7CsUv1BUj_aHWcoPG0-2" value="&lt;b&gt;Operators&lt;/b&gt;" style="shape=process;whiteSpace=wrap;html=1;backgroundOutline=1;fillColor=#fa6800;fontColor=#000000;strokeColor=#C73500;" vertex="1" parent="Gr0Zq-AI6Quabplr0KPa-179">
          <mxGeometry x="683" y="33" width="120" height="60" as="geometry" />
        </mxCell>
        <mxCell id="AG7CsUv1BUj_aHWcoPG0-1" style="edgeStyle=orthogonalEdgeStyle;rounded=0;orthogonalLoop=1;jettySize=auto;html=1;" edge="1" parent="Gr0Zq-AI6Quabplr0KPa-179" source="Gr0Zq-AI6Quabplr0KPa-180" target="AG7CsUv1BUj_aHWcoPG0-2">
          <mxGeometry relative="1" as="geometry">
            <mxPoint x="783" y="63" as="targetPoint" />
          </mxGeometry>
        </mxCell>
        <mxCell id="AG7CsUv1BUj_aHWcoPG0-4" value="!" style="ellipse;whiteSpace=wrap;html=1;fillColor=#ffe6cc;strokeColor=#d79b00;" vertex="1" parent="Gr0Zq-AI6Quabplr0KPa-179">
          <mxGeometry x="721.75" y="151.5" width="42.5" height="37" as="geometry" />
        </mxCell>
        <mxCell id="AG7CsUv1BUj_aHWcoPG0-8" value="&lt;font style=&quot;font-size: 9px;&quot;&gt;find the value from key.&lt;/font&gt;&lt;div&gt;&lt;font style=&quot;font-size: 9px;&quot;&gt;fromList [(5,&#39;a&#39;)] ! 5 = &#39;a&#39;&lt;/font&gt;&lt;/div&gt;" style="text;html=1;align=center;verticalAlign=top;whiteSpace=wrap;rounded=0;labelPosition=center;verticalLabelPosition=middle;" vertex="1" parent="Gr0Zq-AI6Quabplr0KPa-179">
          <mxGeometry x="688.5" y="184.5" width="117" height="60" as="geometry" />
        </mxCell>
        <mxCell id="AG7CsUv1BUj_aHWcoPG0-12" style="edgeStyle=orthogonalEdgeStyle;rounded=0;orthogonalLoop=1;jettySize=auto;html=1;entryX=0.485;entryY=0.026;entryDx=0;entryDy=0;entryPerimeter=0;" edge="1" parent="Gr0Zq-AI6Quabplr0KPa-179" source="AG7CsUv1BUj_aHWcoPG0-11" target="AG7CsUv1BUj_aHWcoPG0-13">
          <mxGeometry relative="1" as="geometry">
            <mxPoint x="655.25" y="326.33333333333337" as="targetPoint" />
            <Array as="points">
              <mxPoint x="658" y="314.5" />
              <mxPoint x="659" y="314.5" />
            </Array>
          </mxGeometry>
        </mxCell>
        <mxCell id="AG7CsUv1BUj_aHWcoPG0-11" value="\\" style="ellipse;whiteSpace=wrap;html=1;fillColor=#ffe6cc;strokeColor=#d79b00;" vertex="1" parent="Gr0Zq-AI6Quabplr0KPa-179">
          <mxGeometry x="634" y="257.5" width="42.5" height="37" as="geometry" />
        </mxCell>
        <mxCell id="AG7CsUv1BUj_aHWcoPG0-13" value="&lt;font size=&quot;1&quot;&gt;get the difference of two lists of map.&lt;/font&gt;&lt;div&gt;&lt;font size=&quot;1&quot;&gt;fromList [(5,&#39;a&#39;),(3,&#39;b&#39;)] \\&amp;nbsp;&lt;/font&gt;&lt;span style=&quot;font-size: x-small; background-color: initial;&quot;&gt;fromList [(5,&#39;a&#39;),(1,&#39;b&#39;)] = fromList [1,&#39;b&#39;]&lt;/span&gt;&lt;/div&gt;" style="text;html=1;align=center;verticalAlign=top;whiteSpace=wrap;rounded=0;labelPosition=center;verticalLabelPosition=middle;" vertex="1" parent="Gr0Zq-AI6Quabplr0KPa-179">
          <mxGeometry x="602" y="324.5" width="117" height="60" as="geometry" />
        </mxCell>
        <mxCell id="AG7CsUv1BUj_aHWcoPG0-20" style="edgeStyle=orthogonalEdgeStyle;rounded=0;orthogonalLoop=1;jettySize=auto;html=1;entryX=0.5;entryY=0;entryDx=0;entryDy=0;" edge="1" parent="Gr0Zq-AI6Quabplr0KPa-179" source="AG7CsUv1BUj_aHWcoPG0-15" target="AG7CsUv1BUj_aHWcoPG0-19">
          <mxGeometry relative="1" as="geometry" />
        </mxCell>
        <mxCell id="AG7CsUv1BUj_aHWcoPG0-34" style="edgeStyle=orthogonalEdgeStyle;rounded=0;orthogonalLoop=1;jettySize=auto;html=1;entryX=1;entryY=0.5;entryDx=0;entryDy=0;" edge="1" parent="Gr0Zq-AI6Quabplr0KPa-179" source="AG7CsUv1BUj_aHWcoPG0-15" target="AG7CsUv1BUj_aHWcoPG0-32">
          <mxGeometry relative="1" as="geometry" />
        </mxCell>
        <mxCell id="AG7CsUv1BUj_aHWcoPG0-41" style="edgeStyle=orthogonalEdgeStyle;rounded=0;orthogonalLoop=1;jettySize=auto;html=1;" edge="1" parent="Gr0Zq-AI6Quabplr0KPa-179" source="AG7CsUv1BUj_aHWcoPG0-15" target="AG7CsUv1BUj_aHWcoPG0-36">
          <mxGeometry relative="1" as="geometry" />
        </mxCell>
        <mxCell id="AG7CsUv1BUj_aHWcoPG0-43" style="edgeStyle=orthogonalEdgeStyle;rounded=0;orthogonalLoop=1;jettySize=auto;html=1;" edge="1" parent="Gr0Zq-AI6Quabplr0KPa-179" source="AG7CsUv1BUj_aHWcoPG0-15" target="AG7CsUv1BUj_aHWcoPG0-42">
          <mxGeometry relative="1" as="geometry" />
        </mxCell>
        <mxCell id="AG7CsUv1BUj_aHWcoPG0-15" value="&lt;b&gt;Query&lt;/b&gt;" style="shape=process;whiteSpace=wrap;html=1;backgroundOutline=1;fillColor=#fa6800;fontColor=#000000;strokeColor=#C73500;textShadow=1;" vertex="1" parent="Gr0Zq-AI6Quabplr0KPa-179">
          <mxGeometry x="1094" y="33" width="120" height="60" as="geometry" />
        </mxCell>
        <mxCell id="AG7CsUv1BUj_aHWcoPG0-23" style="edgeStyle=orthogonalEdgeStyle;rounded=0;orthogonalLoop=1;jettySize=auto;html=1;exitX=0.5;exitY=1;exitDx=0;exitDy=0;entryX=0.5;entryY=0;entryDx=0;entryDy=0;" edge="1" parent="Gr0Zq-AI6Quabplr0KPa-179" source="AG7CsUv1BUj_aHWcoPG0-19" target="AG7CsUv1BUj_aHWcoPG0-21">
          <mxGeometry relative="1" as="geometry" />
        </mxCell>
        <mxCell id="AG7CsUv1BUj_aHWcoPG0-19" value="null" style="ellipse;whiteSpace=wrap;html=1;fillColor=#e1d5e7;strokeColor=#9673a6;" vertex="1" parent="Gr0Zq-AI6Quabplr0KPa-179">
          <mxGeometry x="1087" y="138.5" width="42.5" height="37" as="geometry" />
        </mxCell>
        <mxCell id="AG7CsUv1BUj_aHWcoPG0-21" value="&lt;font size=&quot;1&quot;&gt;is the map empty?&amp;nbsp;&lt;/font&gt;&lt;div&gt;&lt;font size=&quot;1&quot;&gt;null (empty) = True&lt;/font&gt;&lt;/div&gt;" style="text;html=1;align=center;verticalAlign=top;whiteSpace=wrap;rounded=0;labelPosition=center;verticalLabelPosition=middle;" vertex="1" parent="Gr0Zq-AI6Quabplr0KPa-179">
          <mxGeometry x="1049.75" y="188.5" width="117" height="60" as="geometry" />
        </mxCell>
        <mxCell id="AG7CsUv1BUj_aHWcoPG0-30" style="edgeStyle=orthogonalEdgeStyle;rounded=0;orthogonalLoop=1;jettySize=auto;html=1;exitX=0.5;exitY=1;exitDx=0;exitDy=0;entryX=0.5;entryY=0;entryDx=0;entryDy=0;" edge="1" parent="Gr0Zq-AI6Quabplr0KPa-179" source="AG7CsUv1BUj_aHWcoPG0-24" target="AG7CsUv1BUj_aHWcoPG0-27">
          <mxGeometry relative="1" as="geometry" />
        </mxCell>
        <mxCell id="AG7CsUv1BUj_aHWcoPG0-24" value="size" style="ellipse;whiteSpace=wrap;html=1;fillColor=#e1d5e7;strokeColor=#9673a6;" vertex="1" parent="Gr0Zq-AI6Quabplr0KPa-179">
          <mxGeometry x="1208" y="138.5" width="42.5" height="37" as="geometry" />
        </mxCell>
        <mxCell id="AG7CsUv1BUj_aHWcoPG0-26" style="edgeStyle=orthogonalEdgeStyle;rounded=0;orthogonalLoop=1;jettySize=auto;html=1;entryX=0.598;entryY=0.057;entryDx=0;entryDy=0;entryPerimeter=0;" edge="1" parent="Gr0Zq-AI6Quabplr0KPa-179" source="AG7CsUv1BUj_aHWcoPG0-15" target="AG7CsUv1BUj_aHWcoPG0-24">
          <mxGeometry relative="1" as="geometry" />
        </mxCell>
        <mxCell id="AG7CsUv1BUj_aHWcoPG0-27" value="&lt;font size=&quot;1&quot;&gt;size of the map&lt;br&gt;size (fromList [(5,&#39;a&#39;)]) = 1&lt;/font&gt;" style="text;html=1;align=center;verticalAlign=top;whiteSpace=wrap;rounded=0;labelPosition=center;verticalLabelPosition=middle;" vertex="1" parent="Gr0Zq-AI6Quabplr0KPa-179">
          <mxGeometry x="1170.75" y="184.5" width="117" height="60" as="geometry" />
        </mxCell>
        <mxCell id="AG7CsUv1BUj_aHWcoPG0-32" value="member" style="ellipse;whiteSpace=wrap;html=1;fontSize=9;fillColor=#d5e8d4;strokeColor=#82b366;" vertex="1" parent="Gr0Zq-AI6Quabplr0KPa-179">
          <mxGeometry x="1085" y="248.5" width="42.5" height="37" as="geometry" />
        </mxCell>
        <mxCell id="AG7CsUv1BUj_aHWcoPG0-33" value="notmember" style="ellipse;whiteSpace=wrap;html=1;fontSize=8;fillColor=#f8cecc;strokeColor=#b85450;" vertex="1" parent="Gr0Zq-AI6Quabplr0KPa-179">
          <mxGeometry x="1129.5" y="248.5" width="42.5" height="37" as="geometry" />
        </mxCell>
        <mxCell id="AG7CsUv1BUj_aHWcoPG0-35" value="&lt;font size=&quot;1&quot;&gt;is a key present/not present in the map?&lt;/font&gt;&lt;div&gt;&lt;font style=&quot;font-size: 8px;&quot;&gt;member 5 (fromList [(5,&#39;a&#39;]) = True&lt;/font&gt;&lt;/div&gt;" style="text;html=1;align=center;verticalAlign=top;whiteSpace=wrap;rounded=0;labelPosition=center;verticalLabelPosition=middle;" vertex="1" parent="Gr0Zq-AI6Quabplr0KPa-179">
          <mxGeometry x="1073" y="285.5" width="117" height="60" as="geometry" />
        </mxCell>
        <mxCell id="AG7CsUv1BUj_aHWcoPG0-36" value="lookup" style="ellipse;whiteSpace=wrap;html=1;fillColor=#e1d5e7;strokeColor=#9673a6;" vertex="1" parent="Gr0Zq-AI6Quabplr0KPa-179">
          <mxGeometry x="1208" y="248.5" width="42.5" height="37" as="geometry" />
        </mxCell>
        <mxCell id="AG7CsUv1BUj_aHWcoPG0-37" value="&lt;font size=&quot;1&quot;&gt;look up the value of a&amp;nbsp; key (returns a Maybe value)&lt;/font&gt;&lt;div&gt;&lt;font size=&quot;1&quot;&gt;lookup 5 [fromList (5,&#39;c&#39;)] = Just &#39;c&#39;&lt;/font&gt;&lt;/div&gt;" style="text;html=1;align=center;verticalAlign=top;whiteSpace=wrap;rounded=0;labelPosition=center;verticalLabelPosition=middle;" vertex="1" parent="Gr0Zq-AI6Quabplr0KPa-179">
          <mxGeometry x="1179" y="289.5" width="117" height="60" as="geometry" />
        </mxCell>
        <mxCell id="AG7CsUv1BUj_aHWcoPG0-42" value="findWithDefault" style="ellipse;whiteSpace=wrap;html=1;fillColor=#e1d5e7;strokeColor=#9673a6;fontSize=6;" vertex="1" parent="Gr0Zq-AI6Quabplr0KPa-179">
          <mxGeometry x="1110.25" y="378" width="42.5" height="37" as="geometry" />
        </mxCell>
        <mxCell id="AG7CsUv1BUj_aHWcoPG0-44" value="&lt;font size=&quot;1&quot;&gt;lookup but it returns a default value if the query fails.&lt;/font&gt;&lt;div&gt;&lt;font size=&quot;1&quot;&gt;findWithDefault &#39;x&#39; 5 fromList [(3,&#39;a&#39;)] = &#39;x&#39;&lt;/font&gt;&lt;/div&gt;" style="text;html=1;align=center;verticalAlign=top;whiteSpace=wrap;rounded=0;labelPosition=center;verticalLabelPosition=middle;" vertex="1" parent="Gr0Zq-AI6Quabplr0KPa-179">
          <mxGeometry x="1077" y="418" width="117" height="60" as="geometry" />
        </mxCell>
        <mxCell id="AG7CsUv1BUj_aHWcoPG0-50" style="edgeStyle=orthogonalEdgeStyle;rounded=0;orthogonalLoop=1;jettySize=auto;html=1;exitX=0.5;exitY=1;exitDx=0;exitDy=0;entryX=0.5;entryY=0;entryDx=0;entryDy=0;" edge="1" parent="Gr0Zq-AI6Quabplr0KPa-179" source="AG7CsUv1BUj_aHWcoPG0-45" target="AG7CsUv1BUj_aHWcoPG0-47">
          <mxGeometry relative="1" as="geometry" />
        </mxCell>
        <mxCell id="AG7CsUv1BUj_aHWcoPG0-54" style="edgeStyle=orthogonalEdgeStyle;rounded=0;orthogonalLoop=1;jettySize=auto;html=1;exitX=0.5;exitY=1;exitDx=0;exitDy=0;entryX=0.5;entryY=0;entryDx=0;entryDy=0;" edge="1" parent="Gr0Zq-AI6Quabplr0KPa-179" source="AG7CsUv1BUj_aHWcoPG0-45" target="AG7CsUv1BUj_aHWcoPG0-51">
          <mxGeometry relative="1" as="geometry" />
        </mxCell>
        <mxCell id="AG7CsUv1BUj_aHWcoPG0-45" value="&lt;b&gt;Construction&lt;/b&gt;" style="shape=process;whiteSpace=wrap;html=1;backgroundOutline=1;fillColor=#fa6800;fontColor=#000000;strokeColor=#C73500;" vertex="1" parent="Gr0Zq-AI6Quabplr0KPa-179">
          <mxGeometry x="1456" y="36.5" width="120" height="60" as="geometry" />
        </mxCell>
        <mxCell id="AG7CsUv1BUj_aHWcoPG0-46" style="edgeStyle=orthogonalEdgeStyle;rounded=0;orthogonalLoop=1;jettySize=auto;html=1;" edge="1" parent="Gr0Zq-AI6Quabplr0KPa-179" source="Gr0Zq-AI6Quabplr0KPa-180">
          <mxGeometry relative="1" as="geometry">
            <mxPoint x="1454" y="63" as="targetPoint" />
          </mxGeometry>
        </mxCell>
        <mxCell id="AG7CsUv1BUj_aHWcoPG0-49" style="edgeStyle=orthogonalEdgeStyle;rounded=0;orthogonalLoop=1;jettySize=auto;html=1;exitX=0.5;exitY=1;exitDx=0;exitDy=0;" edge="1" parent="Gr0Zq-AI6Quabplr0KPa-179" source="AG7CsUv1BUj_aHWcoPG0-47" target="AG7CsUv1BUj_aHWcoPG0-48">
          <mxGeometry relative="1" as="geometry" />
        </mxCell>
        <mxCell id="AG7CsUv1BUj_aHWcoPG0-47" value="empty" style="ellipse;whiteSpace=wrap;html=1;fillColor=#dae8fc;strokeColor=#6c8ebf;" vertex="1" parent="Gr0Zq-AI6Quabplr0KPa-179">
          <mxGeometry x="1462" y="123" width="42.5" height="37" as="geometry" />
        </mxCell>
        <mxCell id="AG7CsUv1BUj_aHWcoPG0-48" value="&lt;font size=&quot;1&quot;&gt;an empty list&lt;/font&gt;" style="text;html=1;align=center;verticalAlign=top;whiteSpace=wrap;rounded=0;labelPosition=center;verticalLabelPosition=middle;" vertex="1" parent="Gr0Zq-AI6Quabplr0KPa-179">
          <mxGeometry x="1424.75" y="172" width="117" height="60" as="geometry" />
        </mxCell>
        <mxCell id="AG7CsUv1BUj_aHWcoPG0-53" style="edgeStyle=orthogonalEdgeStyle;rounded=0;orthogonalLoop=1;jettySize=auto;html=1;exitX=0.5;exitY=1;exitDx=0;exitDy=0;entryX=0.5;entryY=0;entryDx=0;entryDy=0;" edge="1" parent="Gr0Zq-AI6Quabplr0KPa-179" source="AG7CsUv1BUj_aHWcoPG0-51" target="AG7CsUv1BUj_aHWcoPG0-52">
          <mxGeometry relative="1" as="geometry" />
        </mxCell>
        <mxCell id="AG7CsUv1BUj_aHWcoPG0-51" value="singleton" style="ellipse;whiteSpace=wrap;html=1;fillColor=#dae8fc;strokeColor=#6c8ebf;fontSize=9;" vertex="1" parent="Gr0Zq-AI6Quabplr0KPa-179">
          <mxGeometry x="1551" y="123" width="42.5" height="37" as="geometry" />
        </mxCell>
        <mxCell id="AG7CsUv1BUj_aHWcoPG0-52" value="&lt;font size=&quot;1&quot;&gt;A map with single element.&lt;br&gt;singleton 1 &#39;a&#39; = fromList [(1,&#39;a&#39;)]&lt;/font&gt;" style="text;html=1;align=center;verticalAlign=top;whiteSpace=wrap;rounded=0;labelPosition=center;verticalLabelPosition=middle;" vertex="1" parent="Gr0Zq-AI6Quabplr0KPa-179">
          <mxGeometry x="1513.75" y="172" width="117" height="60" as="geometry" />
        </mxCell>
      </root>
    </mxGraphModel>
  </diagram>
</mxfile>
